<?xml version="1.0" standalone="no"?><!DOCTYPE svg PUBLIC "-//W3C//DTD SVG 1.1//EN" "http://www.w3.org/Graphics/SVG/1.1/DTD/svg11.dtd"><svg t="1657106926704" class="icon" viewBox="0 0 1024 1024" version="1.1" xmlns="http://www.w3.org/2000/svg" p-id="2073" xmlns:xlink="http://www.w3.org/1999/xlink" width="128" height="128"><defs><style type="text/css">@font-face { font-family: feedback-iconfont; src: url("//at.alicdn.com/t/font_1031158_u69w8yhxdu.woff2?t=1630033759944") format("woff2"), url("//at.alicdn.com/t/font_1031158_u69w8yhxdu.woff?t=1630033759944") format("woff"), url("//at.alicdn.com/t/font_1031158_u69w8yhxdu.ttf?t=1630033759944") format("truetype"); }
</style></defs><path d="M810.666667 128a85.333333 85.333333 0 0 1 85.333333 85.333333v384a85.333333 85.333333 0 0 1-85.333333 85.333334h-128v128a85.333333 85.333333 0 0 1-85.333334 85.333333H213.333333a85.333333 85.333333 0 0 1-85.333333-85.333333v-384a85.333333 85.333333 0 0 1 85.333333-85.333334h128V213.333333a85.333333 85.333333 0 0 1 85.333334-85.333333h384z m-213.333334 213.333333H341.333333v256a85.333333 85.333333 0 0 0 78.933334 85.12L426.666667 682.666667h256v-256a85.333333 85.333333 0 0 0-78.933334-85.12L597.333333 341.333333z" fill="#666666" p-id="2074"></path></svg>