<?xml version="1.0" standalone="no"?><!DOCTYPE svg PUBLIC "-//W3C//DTD SVG 1.1//EN" "http://www.w3.org/Graphics/SVG/1.1/DTD/svg11.dtd"><svg t="1657106864314" class="icon" viewBox="0 0 1024 1024" version="1.1" xmlns="http://www.w3.org/2000/svg" p-id="1582" width="128" height="128" xmlns:xlink="http://www.w3.org/1999/xlink"><defs><style type="text/css">@font-face { font-family: feedback-iconfont; src: url("//at.alicdn.com/t/font_1031158_u69w8yhxdu.woff2?t=1630033759944") format("woff2"), url("//at.alicdn.com/t/font_1031158_u69w8yhxdu.woff?t=1630033759944") format("woff"), url("//at.alicdn.com/t/font_1031158_u69w8yhxdu.ttf?t=1630033759944") format("truetype"); }
</style></defs><path d="M810.666667 128a85.333333 85.333333 0 0 1 85.333333 85.333333v384a85.333333 85.333333 0 0 1-85.333333 85.333334h-128v128a85.333333 85.333333 0 0 1-85.333334 85.333333H213.333333a85.333333 85.333333 0 0 1-85.333333-85.333333v-384a85.333333 85.333333 0 0 1 85.333333-85.333334h128V213.333333a85.333333 85.333333 0 0 1 85.333334-85.333333h384zM341.333333 426.666667H213.333333v384h384v-128h-170.666666a85.333333 85.333333 0 0 1-85.333334-85.333334v-170.666666z m341.333334 0v170.666666h128V213.333333h-384v128h170.666666a85.333333 85.333333 0 0 1 85.333334 85.333334z" fill="#707070" p-id="1583"></path></svg>