<svg xmlns="http://www.w3.org/2000/svg" xmlns:xlink="http://www.w3.org/1999/xlink" fill="none" version="1.1" width="16" height="16" viewBox="0 0 16 16"><defs><clipPath id="master_svg0_1106_05574"><rect x="0" y="0" width="16" height="16" rx="0"/></clipPath></defs><g clip-path="url(#master_svg0_1106_05574)"><g><path d="M0.998714,0.998714L11.9846,0.998714L11.9846,6.92908L12.9833,6.92908L12.9833,0.79947C12.9827,0.358163,12.6251,0.000550076,12.1838,0L0.798971,0C0.357859,0.000825204,0.000549604,0.358358,0,0.79947L0,15.1805C0.000825309,15.6216,0.358358,15.9789,0.79947,15.9794L4.90369,15.9794L4.90369,14.9807L0.998714,14.9807L0.998714,0.998714Z" fill="#333333" fill-opacity="1"/></g><g><path d="M2.99609375,2.9453125L9.98709375,2.9453125L9.98709375,3.9440265L2.99609375,3.9440265L2.99609375,2.9453125ZM2.99609375,5.6508325L9.98709375,5.6508325L9.98709375,6.6495425L2.99609375,6.6495425L2.99609375,5.6508325ZM7.96170375,9.5488125C7.76670375,9.3538725,7.45060375,9.3538725,7.25560375,9.5488125L5.14432375,11.6600925C4.90030375,11.9053525,4.90030375,12.3016825,5.14432375,12.5469425L7.25560375,14.6582125C7.45154375,14.8475125,7.76300375,14.8448125,7.95563375,14.6521125C8.14825375,14.4595125,8.15095375,14.1481125,7.96170375,13.9521125L6.1130837499999995,12.1035225L7.96170375,10.2549025C8.15664375,10.0599025,8.15664375,9.7438125,7.96170375,9.5488125ZM15.79609375,11.6600925L13.68479375,9.5488125C13.48889375,9.3595425,13.17739375,9.3622425,12.98480375,9.5548725C12.79217375,9.7475025,12.78947375,10.0589625,12.97874375,10.2549025L14.82739375,12.1035225L12.97874375,13.9521125C12.78338375,14.1471125,12.78316375,14.4635125,12.97824375,14.6587125C13.17329375,14.8539125,13.48979375,14.8539125,13.68479375,14.6587125L15.79709375,12.5464525C16.04049375,12.3009725,16.04009375,11.9050225,15.79609375,11.6600925ZM11.62498375,8.2444925C11.35857375,8.1733725,11.08495375,8.331642500000001,11.01377375,8.5980325L9.20460375,15.3503125C9.12315375,15.6202125,9.28117375,15.9040125,9.55352375,15.9769125C9.82586375,16.049912499999998,10.10453375,15.8830125,10.16885375,15.6085125L11.97852375,8.8557025C12.04967375,8.5894525,11.89166375,8.3158925,11.62548375,8.2444925L11.62498375,8.2444925Z" fill="#333333" fill-opacity="1"/></g></g></svg>