<svg xmlns="http://www.w3.org/2000/svg" xmlns:xlink="http://www.w3.org/1999/xlink" fill="none" version="1.1" width="16" height="16" viewBox="0 0 16 16"><defs><clipPath id="master_svg0_1106_06038"><rect x="16" y="0" width="16" height="16" rx="0"/></clipPath></defs><g transform="matrix(-1,0,0,1,32,0)" clip-path="url(#master_svg0_1106_06038)"><g><path d="M22,10C22,10,22,9,22,9C22,9,25,9,25,9C25.56267,8.98967,26.034,8.79433,26.414,8.414C26.794,8.03367,26.989330000000002,7.56233,27,7C27,7,27,5,27,5C26.98967,4.43733,26.794330000000002,3.966,26.414,3.5860000000000003C26.03367,3.206,25.56233,3.01067,25,3C25,3,20,3,20,3C19.43733,3.0103299999999997,18.966,3.20567,18.586,3.5860000000000003C18.206,3.96633,18.01067,4.43767,18,5C18,5,18,7,18,7C18,7.36467,18.0885,7.698,18.2655,8C18.4425,8.302,18.68733,8.54683,19,8.7345C19,8.7345,19,9.8285,19,9.8285C18.39567,9.609829999999999,17.913833,9.24517,17.5545,8.7345C17.195167,8.22383,17.0103333,7.64567,17,7C17,7,17,5,17,5C17.021,4.14567,17.312667,3.43733,17.875,2.875C18.43733,2.312667,19.14567,2.021,20,2C20,2,25,2,25,2C25.854329999999997,2.021,26.56267,2.312667,27.125,2.875C27.6873,3.43733,27.979,4.14567,28,5C28,5,28,7,28,7C27.979,7.85433,27.6873,8.56267,27.125,9.125C26.56267,9.68733,25.854329999999997,9.979,25,10C25,10,22,10,22,10C22,10,22,10,22,10Z" fill="#666666" fill-opacity="1"/></g><g><path d="M28,5Q28,4.85262,27.985599999999998,4.70595Q27.9711,4.55928,27.9424,4.4147300000000005Q27.913600000000002,4.27018,27.8708,4.12915Q27.828,3.98811,27.7716,3.85195Q27.7152,3.71579,27.6458,3.58581Q27.5763,3.4558299999999997,27.4944,3.33329Q27.4125,3.21075,27.319000000000003,3.09682Q27.2255,2.982893,27.121299999999998,2.87868Q27.0171,2.774466,26.90318,2.680969Q26.78925,2.587471,26.666710000000002,2.505591Q26.54417,2.423711,26.414189999999998,2.354236Q26.28421,2.284761,26.148049999999998,2.228361Q26.01189,2.171961,25.87085,2.129179Q25.72982,2.0863967,25.58527,2.0576442Q25.44072,2.0288916,25.29405,2.0144458Q25.14738,2,25,2L20,2Q19.85262,2,19.70595,2.0144458Q19.55928,2.0288916,19.41473,2.0576442Q19.27018,2.0863967,19.12915,2.129179Q18.98811,2.171961,18.85195,2.228361Q18.71579,2.284761,18.58581,2.354236Q18.45583,2.423711,18.33329,2.505591Q18.21075,2.587471,18.09682,2.680969Q17.982893,2.774466,17.87868,2.87868Q17.774466,2.982893,17.680969,3.09682Q17.587471,3.21075,17.505591,3.33329Q17.423711,3.4558299999999997,17.354236,3.58581Q17.284761,3.71579,17.228361,3.85195Q17.171961,3.98811,17.129179,4.12915Q17.0863967,4.27018,17.0576442,4.4147300000000005Q17.0288916,4.55928,17.0144458,4.70595Q17,4.85262,17,5L17,7Q17,7.23126,17.0354439,7.45979Q17.0708878,7.68832,17.140938,7.90872Q17.210988,8.12911,17.31399,8.33617Q17.416991,8.543230000000001,17.55051,8.732050000000001Q17.684029,8.92087,17.84491,9.087Q18.00579,9.253129999999999,18.19023,9.39264Q18.37468,9.53215,18.57832,9.64175Q18.78196,9.751339999999999,19,9.82843L19,7.5Q19,6.46447,19.73223,5.7322299999999995Q20.46447,5,21.5,5L25.5,5Q25.549239999999998,5,25.597540000000002,5.00961Q25.64584,5.01921,25.69134,5.03806Q25.73684,5.05691,25.77778,5.0842600000000004Q25.818730000000002,5.11162,25.85355,5.14645Q25.888370000000002,5.18127,25.91573,5.2222100000000005Q25.943089999999998,5.26316,25.96194,5.30866Q25.98078,5.354150000000001,25.990389999999998,5.40245Q26,5.45075,26,5.5Q26,5.54925,25.990389999999998,5.59754Q25.98078,5.64584,25.96194,5.69134Q25.943089999999998,5.73684,25.91573,5.77778Q25.888370000000002,5.81873,25.85355,5.85355Q25.818730000000002,5.88838,25.77778,5.91573Q25.73684,5.94309,25.69134,5.96194Q25.64584,5.98078,25.597540000000002,5.99039Q25.549239999999998,6,25.5,6L21.5,6Q20.87868,6,20.43934,6.43934Q20,6.87868,20,7.5L20,11Q20,11.14738,20.01445,11.29405Q20.02889,11.44072,20.05764,11.58527Q20.0864,11.72982,20.129179999999998,11.87085Q20.17196,12.0119,20.22836,12.148Q20.28476,12.2842,20.35424,12.4142Q20.42371,12.5442,20.50559,12.6667Q20.58747,12.7893,20.68097,12.9032Q20.77447,13.0171,20.87868,13.1213Q20.98289,13.2255,21.09682,13.319Q21.21075,13.4125,21.333289999999998,13.4944Q21.45583,13.5763,21.585810000000002,13.6458Q21.71579,13.7152,21.851950000000002,13.7716Q21.98811,13.828,22.12915,13.8708Q22.27018,13.9136,22.41473,13.9424Q22.55928,13.9711,22.70595,13.9856Q22.85262,14,23,14L28,14Q28.147399999999998,14,28.2941,13.9856Q28.4407,13.9711,28.5853,13.9424Q28.729799999999997,13.9136,28.8709,13.8708Q29.0119,13.828,29.148,13.7716Q29.2842,13.7152,29.4142,13.6458Q29.5442,13.5763,29.6667,13.4944Q29.7893,13.4125,29.9032,13.319Q30.0171,13.2255,30.121299999999998,13.1213Q30.2255,13.0171,30.319000000000003,12.9032Q30.4125,12.7893,30.4944,12.6667Q30.5763,12.5442,30.6458,12.4142Q30.7152,12.2842,30.7716,12.148Q30.828,12.0119,30.8708,11.87085Q30.913600000000002,11.72982,30.9424,11.58527Q30.9711,11.44072,30.985599999999998,11.29405Q31,11.14738,31,11L31,9Q31,8.768740000000001,30.9646,8.54021Q30.9291,8.311679999999999,30.859099999999998,8.091280000000001Q30.789,7.87089,30.686,7.66383Q30.583,7.45677,30.4495,7.26795Q30.316000000000003,7.07912,30.155099999999997,6.91299Q29.9942,6.74687,29.8098,6.60736Q29.6253,6.46785,29.4217,6.35825Q29.218,6.24866,29,6.17157L29,8.5Q29,9.53553,28.2678,10.26777Q27.5355,11,26.5,11L22.5,11Q22.45075,11,22.40245,10.99039Q22.35415,10.98078,22.30866,10.96194Q22.26316,10.94309,22.22221,10.91573Q22.181269999999998,10.88837,22.14645,10.85355Q22.111620000000002,10.81873,22.08426,10.77778Q22.0569,10.73684,22.03806,10.69134Q22.01921,10.64584,22.009610000000002,10.59754Q22,10.54924,22,10.5Q22,10.45075,22.009610000000002,10.40245Q22.01921,10.35415,22.03806,10.30866Q22.0569,10.26316,22.08426,10.22221Q22.111620000000002,10.18127,22.14645,10.14645Q22.181269999999998,10.11162,22.22221,10.08426Q22.26316,10.05691,22.30866,10.03806Q22.35415,10.01921,22.40245,10.00961Q22.45075,10,22.5,10L26.5,10Q27.121299999999998,10,27.5607,9.56066Q28,9.12132,28,8.5L28,5Z" fill-rule="evenodd" fill="#666666" fill-opacity="1"/></g></g></svg>