<svg xmlns="http://www.w3.org/2000/svg" xmlns:xlink="http://www.w3.org/1999/xlink" fill="none" version="1.1" width="16" height="16" viewBox="0 0 16 16"><defs><clipPath id="master_svg0_1106_05556"><rect x="0" y="0" width="16" height="16" rx="0"/></clipPath></defs><g clip-path="url(#master_svg0_1106_05556)"><g><path d="M4.18182,1.33333L11.8182,1.33333C12.2,1.33333,12.4545,1.06667,12.4545,0.666667C12.4545,0.266667,12.2,0,11.8182,0L4.18182,0C3.8,0,3.54545,0.266667,3.54545,0.666667C3.54545,1.06667,3.8,1.33333,4.18182,1.33333ZM13.7273,5.33333L2.27273,5.33333C1.509091,5.33333,1,5.86667,1,6.66667L1,14.6667C1,15.4667,1.509091,16,2.27273,16L13.7273,16C14.4909,16,15,15.4667,15,14.6667L15,6.66667C15,5.86667,14.4909,5.33333,13.7273,5.33333ZM13.7273,14.6667L2.27273,14.6667L2.27273,6.66667L13.7273,6.66667L13.7273,14.6667ZM2.90909,4L13.0909,4C13.4727,4,13.7273,3.73333,13.7273,3.33333C13.7273,2.93333,13.4727,2.66667,13.0909,2.66667L2.90909,2.66667C2.5272699999999997,2.66667,2.27273,2.93333,2.27273,3.33333C2.27273,3.73333,2.5272699999999997,4,2.90909,4Z" fill="#333333" fill-opacity="1"/></g></g></svg>