<?xml version="1.0" standalone="no"?><!DOCTYPE svg PUBLIC "-//W3C//DTD SVG 1.1//EN" "http://www.w3.org/Graphics/SVG/1.1/DTD/svg11.dtd"><svg t="1681111921394" class="icon" viewBox="0 0 1024 1024" version="1.1" xmlns="http://www.w3.org/2000/svg" p-id="2880" width="160" height="160" xmlns:xlink="http://www.w3.org/1999/xlink"><path d="M341.333333 640a42.666667 42.666667 0 0 1-42.666666 42.666667H256a170.666667 170.666667 0 0 1-40.277333-336.554667 298.709333 298.709333 0 0 1 570.154666-81.408A213.333333 213.333333 0 0 1 725.333333 682.666667a42.666667 42.666667 0 0 1 0.042667-85.333334 128 128 0 0 0 36.394667-250.794666l-38.144-11.264-15.914667-36.437334a213.376 213.376 0 0 0-407.296 58.026667l-7.381333 58.368-57.173334 13.824A85.418667 85.418667 0 0 0 256 597.333333h42.666667a42.666667 42.666667 0 0 1 42.666666 42.666667z m321.706667 87.338667a42.666667 42.666667 0 0 1 0 60.330666l-120.917333 120.832c-16.682667 16.64-43.690667 16.64-60.373334 0l-120.917333-120.832a42.666667 42.666667 0 0 1 60.330667-60.330666L469.333333 775.509333V426.666667a42.666667 42.666667 0 0 1 85.333334 0v348.714666l48.042666-48.042666a42.666667 42.666667 0 0 1 60.330667 0z" fill="#409EFF" p-id="2881"></path></svg>