<svg xmlns="http://www.w3.org/2000/svg" xmlns:xlink="http://www.w3.org/1999/xlink" fill="none" version="1.1" width="16" height="16" viewBox="0 0 16 16"><defs><clipPath id="master_svg0_1106_05549"><rect x="0" y="0" width="16" height="16" rx="0"/></clipPath></defs><g clip-path="url(#master_svg0_1106_05549)"><g><path d="M12.6875,9.875L10.8125,9.875L10.8125,6.125L12.6875,6.125C14.2388,6.125,15.5,4.86377,15.5,3.3125C15.5,1.76123,14.2388,0.5,12.6875,0.5C11.1362,0.5,9.875,1.76123,9.875,3.3125L9.875,5.1875L6.125,5.1875L6.125,3.3125C6.125,1.76123,4.86377,0.5,3.3125,0.5C1.76123,0.5,0.5,1.76123,0.5,3.3125C0.5,4.86377,1.76123,6.125,3.3125,6.125L5.1875,6.125L5.1875,9.875L3.3125,9.875C1.76123,9.875,0.5,11.1362,0.5,12.6875C0.5,14.2388,1.76123,15.5,3.3125,15.5C4.86377,15.5,6.125,14.2388,6.125,12.6875L6.125,10.8125L9.875,10.8125L9.875,12.6875C9.875,14.2388,11.1362,15.5,12.6875,15.5C14.2388,15.5,15.5,14.2388,15.5,12.6875C15.5,11.1362,14.2388,9.875,12.6875,9.875ZM10.8125,3.3125C10.8125,2.27832,11.6533,1.4375,12.6875,1.4375C13.7217,1.4375,14.5625,2.27832,14.5625,3.3125C14.5625,4.34668,13.7217,5.1875,12.6875,5.1875L10.8125,5.1875L10.8125,3.3125ZM3.3125,5.1875C2.27832,5.1875,1.4375,4.34668,1.4375,3.3125C1.4375,2.27832,2.27832,1.4375,3.3125,1.4375C4.34668,1.4375,5.1875,2.27832,5.1875,3.3125L5.1875,5.1875L3.3125,5.1875ZM5.1875,12.6875C5.1875,13.7217,4.34668,14.5625,3.3125,14.5625C2.27832,14.5625,1.4375,13.7217,1.4375,12.6875C1.4375,11.6533,2.27832,10.8125,3.3125,10.8125L5.1875,10.8125L5.1875,12.6875ZM6.125,6.125L9.875,6.125L9.875,9.875L6.125,9.875L6.125,6.125ZM12.6875,14.5625C11.6533,14.5625,10.8125,13.7217,10.8125,12.6875L10.8125,10.8125L12.6875,10.8125C13.7217,10.8125,14.5625,11.6533,14.5625,12.6875C14.5625,13.7217,13.7217,14.5625,12.6875,14.5625Z" fill="#333333" fill-opacity="1"/></g></g></svg>