<svg xmlns="http://www.w3.org/2000/svg" xmlns:xlink="http://www.w3.org/1999/xlink" fill="none" version="1.1" width="16" height="16" viewBox="0 0 16 16"><defs><clipPath id="master_svg0_1106_07613/1106_07464"><rect x="0" y="0" width="16" height="16" rx="0"/></clipPath></defs><g clip-path="url(#master_svg0_1106_07613/1106_07464)"><g><path d="M2,5C2,5,2,14,2,14C2,14,11,14,11,14C11,14,11,5,11,5C11,5,2,5,2,5C2,5,2,5,2,5ZM1.5,4C1.5,4,11.5,4,11.5,4C11.646,4,11.7658,4.04683,11.8595,4.140499999999999C11.9532,4.234170000000001,12,4.354,12,4.5C12,4.5,12,14.5,12,14.5C12,14.646,11.9532,14.7658,11.8595,14.8595C11.7658,14.9532,11.646,15,11.5,15C11.5,15,1.5,15,1.5,15C1.354,15,1.234167,14.9532,1.1405,14.8595C1.0468333,14.7658,1.0000000000000002,14.646,1,14.5C1,14.5,1,4.5,1,4.5C1,4.354,1.0468333,4.234170000000001,1.1405,4.140499999999999C1.234167,4.04683,1.354,4,1.5,4C1.5,4,1.5,4,1.5,4ZM15,1.5C15,1.5,15,12.5,15,12.5C15,12.646,14.9532,12.7658,14.8595,12.8595C14.7658,12.9532,14.646,13,14.5,13C14.5,13,13,13,13,13C13,13,13,12,13,12C13,12,14,12,14,12C14,12,14,2,14,2C14,2,6,2,6,2C6,2,6,3,6,3C6,3,5,3,5,3C5,3,5,1.5,5,1.5C5,1.354,5.04683,1.234167,5.1405,1.1405C5.23417,1.0468333,5.354,1.0000000000000002,5.5,1C5.5,1,14.5,1,14.5,1C14.646,1,14.7658,1.0468333,14.8595,1.1405C14.9532,1.234167,15,1.354,15,1.5C15,1.5,15,1.5,15,1.5ZM4,10.5C4,10.5,9,10.5,9,10.5C9,10.5,9,11.5,9,11.5C9,11.5,4,11.5,4,11.5C4,11.5,4,10.5,4,10.5C4,10.5,4,10.5,4,10.5ZM4,7.5C4,7.5,9,7.5,9,7.5C9,7.5,9,8.5,9,8.5C9,8.5,4,8.5,4,8.5C4,8.5,4,7.5,4,7.5C4,7.5,4,7.5,4,7.5Z" fill="#666666" fill-opacity="1"/></g></g></svg>