<svg xmlns="http://www.w3.org/2000/svg" xmlns:xlink="http://www.w3.org/1999/xlink" fill="none" version="1.1" width="16" height="16" viewBox="0 0 16 16"><defs><clipPath id="master_svg0_1106_07613/1106_07463"><rect x="0" y="0" width="16" height="16" rx="0"/></clipPath></defs><g clip-path="url(#master_svg0_1106_07613/1106_07463)"><g><path d="M12.9455,12.9455C14.2632,11.6278,14.948,9.97933,15,8C14.948,6.02067,14.2632,4.372170000000001,12.9455,3.0545C11.6278,1.7368329999999998,9.97933,1.052,8,1C6.02067,1.052,4.372170000000001,1.7368329999999998,3.0545,3.0545Q1.078,5.031,1,8C1.052,9.97933,1.7368329999999998,11.6278,3.0545,12.9455C4.372170000000001,14.2632,6.02067,14.948,8,15C9.97933,14.948,11.6278,14.2632,12.9455,12.9455ZM3.76161,3.76161Q5.44738,2.07584,8,2.00039Q10.55259,2.07584,12.2384,3.76162Q13.9242,5.44733,13.9996,8Q13.9242,10.55263,12.2384,12.2384Q10.55263,13.9242,8,13.9996Q5.44733,13.9242,3.76161,12.2384Q2.07584,10.55259,2.00039,8Q2.07584,5.44737,3.76161,3.76161Z" fill-rule="evenodd" fill="#666666" fill-opacity="1"/></g><g><path d="M7.999988281249999,11.99981375C8.22931828125,11.98951375,8.41948828125,11.91131375,8.57048828125,11.76531375C8.72148828125,11.61931375,8.79698828125,11.43181375,8.79698828125,11.20281375C8.79698828125,10.97381375,8.72148828125,10.78364375,8.57048828125,10.63231375C8.41948828125,10.48098375,8.22931828125,10.40548375,7.999988281249999,10.40581375C7.77065828125,10.40614375,7.58048828125,10.48164375,7.42948828125,10.63231375C7.2784882812500005,10.78298375,7.20298828125,10.97314375,7.20298828125,11.20281375C7.20298828125,11.43251375,7.2784882812500005,11.62001375,7.42948828125,11.76531375C7.58048828125,11.91061375,7.77065828125,11.98881375,7.999988281249999,11.99981375C7.999988281249999,11.99981375,7.999988281249999,11.99981375,7.999988281249999,11.99981375C7.999988281249999,11.99981375,7.999988281249999,11.99981375,7.999988281249999,11.99981375ZM7.999988281249999,7.79681375C7.8333182812499995,7.80714375,7.69265828125,7.86698375,7.577988281250001,7.97631375C7.46331828125,8.08564375,7.40598828125,8.22631375,7.40598828125,8.39831375C7.40598828125,8.57031375,7.46331828125,8.71348375,7.577988281250001,8.82781375C7.69265828125,8.94214375,7.8333182812499995,8.99948375,7.999988281249999,8.999813750000001C8.68765828125,8.98948375,9.28148828125,8.77064375,9.781488281249999,8.34331375C10.281488281249999,7.91598375,10.593988281249999,7.36381375,10.718988281249999,6.68681375C10.81265828125,6.00981375,10.69031828125,5.38998375,10.35198828125,4.82731375C10.013658281249999,4.26464175,9.51631828125,3.86881175,8.85998828125,3.63981175C8.20365828125,3.43148125,7.57348828125,3.44964135,6.96948828125,3.69431175C6.36548828125,3.93898075,5.89665828125,4.36348175,5.56298828125,4.9678137499999995C5.56298828125,4.9678137499999995,6.57848828125,5.608313750000001,6.57848828125,5.608313750000001C6.75548828125,5.25398375,7.01331828125,4.99881375,7.35198828125,4.8428137499999995C7.69065828125,4.68681375,8.04998828125,4.66331375,8.42998828125,4.77231375C8.80998828125,4.88131375,9.10165828125,5.09231375,9.30498828125,5.4053137499999995C9.50831828125,5.71831375,9.581318281249999,6.06981375,9.52398828125,6.45981375C9.46665828125,6.84981375,9.29731828125,7.167483750000001,9.01598828125,7.41281375C8.73465828125,7.65814375,8.396158281249999,7.78581375,8.00048828125,7.79581375C8.00048828125,7.79581375,7.999988281249999,7.79681375,7.999988281249999,7.79681375C7.999988281249999,7.79681375,7.999988281249999,7.79681375,7.999988281249999,7.79681375Z" fill="#666666" fill-opacity="1"/></g></g></svg>