<svg xmlns="http://www.w3.org/2000/svg" xmlns:xlink="http://www.w3.org/1999/xlink" fill="none" version="1.1" width="16" height="16" viewBox="0 0 16 16"><defs><clipPath id="master_svg0_1106_05572"><rect x="0" y="0" width="16" height="16" rx="0"/></clipPath></defs><g clip-path="url(#master_svg0_1106_05572)"><g><path d="M11.2846,5.31612L7.94454,7.23724L4.66208,5.37532C4.038,5.02331,3.50546,5.9508,4.12954,6.30228L7.47338,8.19886L7.47338,12.4779C7.47367,12.7723,7.71467,13.0107,8.011849999999999,13.0107C8.30902,13.0107,8.55002,12.7723,8.55031,12.4779L8.55031,8.17753C8.55031,8.15993,8.54169,8.14499,8.54008,8.12739L11.8172,6.24254C12.4412,5.8916,11.9087,4.96411,11.2846,5.31612ZM14.1972,3.34113L8.81092,0.218385C8.30873,-0.0727951,7.68696,-0.0727951,7.18477,0.218385L1.802308,3.34113C1.304713,3.63075,0.999379672,4.15991,1.00000102703,4.73157L1.00000102703,11.3595C1.00000102703,11.9392,1.313386,12.4742,1.820078,12.7595L7.20469,15.7916C7.6976,16.0695,8.30186,16.0695,8.79477,15.7916L14.1794,12.7595C14.6872,12.473,15.0005,11.9384,15,11.3595L15,4.73157C15.0005,4.1598,14.695,3.63062,14.1972,3.34113ZM13.9231,11.3595C13.9231,11.5526,13.8186,11.7312,13.6495,11.8262L8.26492,14.8582C8.100719999999999,14.951,7.89927,14.951,7.73508,14.8582L2.35046,11.8262C2.18119,11.7306,2.07675,11.5524,2.0769200000000003,11.3595L2.0769200000000003,4.73157C2.0769200000000003,4.54063,2.17869,4.36463,2.3445400000000003,4.26809L7.727,1.14534C7.89427,1.04827,8.10143,1.04827,8.26869,1.14534L13.6555,4.26863C13.8213,4.36409,13.9231,4.54063,13.9231,4.73157L13.9231,11.3595Z" fill="#3D3D3D" fill-opacity="1"/></g></g></svg>