<svg xmlns="http://www.w3.org/2000/svg" xmlns:xlink="http://www.w3.org/1999/xlink" fill="none" version="1.1" width="16" height="16" viewBox="0 0 16 16"><defs><clipPath id="master_svg0_1106_07613/1106_07443"><rect x="0" y="0" width="16" height="16" rx="0"/></clipPath></defs><g clip-path="url(#master_svg0_1106_07613/1106_07443)"><g><path d="M7.9997,3.88235C10.41576,3.88235,12.3742,5.72582,12.3742,8L11.0619,8C11.0618,6.42098,9.71209,5.13591,8.03467,5.11788C6.35725,5.09985,4.97667,6.35557,4.9383300000000006,7.93418C4.89999,9.51278,6.21817,10.82657,7.89471,10.8807L7.9997,10.88235C10.77403,10.88235,13.1179,12.6188,13.8703,15L12.4836,15C11.7837,13.313,10.03998,12.1176,7.9997,12.1176C5.95942,12.1176,4.215730000000001,13.313,3.51581,15L2.12908,15C2.64128,13.3892,3.87318,12.0682,5.50359,11.3814C4.32588,10.61272,3.62386,9.34899,3.62517,8C3.62517,5.72582,5.58365,3.88235,7.9997,3.88235ZM7.9997,1C11.2307,1,13.8773,3.35529,14.1079,6.341C14.8698,6.86806,15.1856,7.7963,14.8908,8.64195C14.596,9.4876,13.7572,10.05919,12.8117,10.05882L9.96824,10.05923C9.58136,10.54479,8.83444,10.6115,8.35745,10.20309C7.88045,9.79469,7.88045,9.08848,8.35745,8.68008C8.83444,8.27168,9.58136,8.33839,9.96824,8.82394L12.8117,8.82353C13.2949,8.82353,13.6866,8.45482,13.6866,8C13.6866,7.54518,13.2949,7.17647,12.8117,7.17647L12.8117,6.76471C12.8117,4.26323,10.65723,2.23529,7.9997,2.23529C5.34217,2.23529,3.18772,4.26323,3.18772,6.76471L3.18772,7.17647C2.70452,7.17647,2.31281,7.54518,2.31281,8C2.31281,8.45482,2.70452,8.82353,3.18772,8.82353L3.18772,10.05882C2.24241,10.05895,1.4039920000000001,9.48744,1.109212,8.642009999999999C0.814432,7.79659,1.130007,6.86858,1.8915440000000001,6.34141C2.12208,3.35529,4.76867,0.999999871149,7.9997,1Z" fill="#666666" fill-opacity="1"/></g></g></svg>