<svg xmlns="http://www.w3.org/2000/svg" xmlns:xlink="http://www.w3.org/1999/xlink" fill="none" version="1.1" width="16" height="16" viewBox="0 0 16 16"><defs><clipPath id="master_svg0_1106_05983"><rect x="0" y="0" width="16" height="16" rx="0"/></clipPath></defs><g clip-path="url(#master_svg0_1106_05983)"><g><path d="M6.933345986328125,14.506613671875L8.533345986328126,12.319913671875C8.560005986328125,12.266613671875,8.533345986328126,12.213313671875,8.506675986328126,12.186613671875L6.906675986328125,11.653313671875C6.853345986328125,11.626613671875,6.800005986328125,11.679913671875,6.800005986328125,11.733313671875L6.800005986328125,14.426613671875C6.800005986328125,14.533313671875,6.906675986328125,14.559913671875,6.933345986328125,14.506613671875ZM5.200005986328125,10.266613671875L11.466685986328125,5.2799436718749995L7.200005986328125,10.506613671875C7.093345986328125,10.639943671875,7.146675986328125,10.879943671875,7.333345986328125,10.933283671875L12.106685986328126,12.479913671875C12.239985986328126,12.533313671875,12.399985986328126,12.453313671875,12.453385986328126,12.293313671875L15.173385986328125,1.813280671875C15.226685986328125,1.599946671875,15.013385986328124,1.413280271875,14.799985986328124,1.519946971875L0.986675986328125,8.453283671874999C0.773342686328125,8.559943671875,0.800009386328125,8.879943671875,1.013342986328125,8.933283671875C2.026675986328125,9.253283671875,4.053345986328125,9.893283671875,5.200005986328125,10.266613671875Z" fill="#333333" fill-opacity="1"/></g></g></svg>